<svg width="349" height="364" viewBox="0 0 349 364" fill="none" xmlns="http://www.w3.org/2000/svg">
<path d="M11.4283 266.242L33.6202 74.25L203.202 89.9721L181.011 281.964L11.4283 266.242Z" fill="#91A8DD"/>
<path d="M95.7797 295.799L-38.2581 312.058L-67.1512 120.845L101.742 100.357L125.922 260.378L95.7797 295.799Z" fill="#B5CEFF"/>
<path d="M125.922 324.1H-9.33868L-9.33868 131.143H161.095V292.623L125.922 324.1Z" fill="#E9F2FF"/>
<path d="M133.04 131.143V317.733L161.098 292.623V131.143H133.04Z" fill="#DEEBFF"/>
<path d="M125.922 324.106V292.629H161.095L125.922 324.106Z" fill="#91A8DD"/>
<path d="M47.3872 266.242L69.579 74.25L239.161 89.9721L216.97 281.964L47.3872 266.242Z" fill="#91A8DD"/>
<path d="M131.739 295.799L-2.29921 312.058L-31.1923 120.845L137.701 100.357L161.881 260.378L131.739 295.799Z" fill="#B5CEFF"/>
<path d="M161.881 324.1H26.6202L26.6202 131.143H197.054V292.623L161.881 324.1Z" fill="#E9F2FF"/>
<path d="M168.999 131.143V317.733L197.057 292.623V131.143H168.999Z" fill="#DEEBFF"/>
<path d="M161.881 324.106V292.629H197.054L161.881 324.106Z" fill="#91A8DD"/>
<path opacity="0.5" d="M115.596 227.137L176.492 41.984L340.033 85.1262L279.138 270.279L115.596 227.137Z" fill="#91A8DD"/>
<path opacity="0.54" d="M193.331 266.081L57.425 264.074L77.3944 25.6399L248.642 28.1687L231.93 227.707L193.331 266.081Z" fill="#B5CEFF"/>
<path opacity="0.54" d="M216.396 302.722L83.4017 280.641L122.674 90.916L290.253 118.739L257.387 277.513L216.396 302.722Z" fill="#E9F2FF"/>
<path d="M262.671 114.152L224.694 297.617L257.393 277.508L290.259 118.733L262.671 114.152Z" fill="#DEEBFF"/>
<path d="M216.397 302.72L222.804 271.77L257.388 277.511L216.397 302.72Z" fill="#91A8DD"/>
<path d="M104.591 305.347L126.782 113.355L296.365 129.078L274.173 321.069L104.591 305.347Z" fill="#91A8DD"/>
<path opacity="0.5" d="M188.942 334.904L54.9042 351.164L26.0111 159.951L194.905 139.463L219.084 299.483L188.942 334.904Z" fill="#B5CEFF"/>
<path d="M218.798 363.233H82.935L82.935 119.342L254.128 119.342V323.447L218.798 363.233Z" fill="#E9F2FF"/>
<path d="M218.951 363.234V323.367H254.128L218.951 363.234Z" fill="#91A8DD"/>
<rect x="113.491" y="163.316" width="114.91" height="9.38044" rx="4.69022" transform="rotate(-0.879053 113.491 163.316)" fill="#A4BDEF"/>
<rect x="113.491" y="183.195" width="114.91" height="9.38044" rx="4.69022" transform="rotate(-0.879053 113.491 183.195)" fill="#A4BDEF"/>
<rect x="113.491" y="203.074" width="114.91" height="9.38044" rx="4.69022" transform="rotate(-0.879053 113.491 203.074)" fill="#A4BDEF"/>
<rect x="113.491" y="222.953" width="114.91" height="9.38044" rx="4.69022" transform="rotate(-0.879053 113.491 222.953)" fill="#A4BDEF"/>
<rect x="113.491" y="262.709" width="114.91" height="9.38044" rx="4.69022" transform="rotate(-0.879053 113.491 262.709)" fill="#A4BDEF"/>
<rect x="113.491" y="282.588" width="114.91" height="9.38044" rx="4.69022" transform="rotate(-0.879053 113.491 282.588)" fill="#A4BDEF"/>
<rect x="113.491" y="322.346" width="114.91" height="9.38044" rx="4.69022" transform="rotate(-0.879053 113.491 322.346)" fill="#A4BDEF"/>
</svg>
